<?xml version="1.0" encoding="UTF-8"?>
<svg id="Layer_1" xmlns="http://www.w3.org/2000/svg" version="1.1" viewBox="0 0 145 40">
  <!-- Generator: Adobe Illustrator 30.3.0, SVG Export Plug-In . SVG Version: 2.1.3 Build 182)  -->
  <defs>
    <style>
      .st0 {
        fill: #fff;
      }
    </style>
  </defs>
  <path class="st0" d="M91.4,0v12h4.9v-1.2h-3.6V0h-1.3Z"/>
  <path class="st0" d="M98.1,0h-1.3v12h1.3V0Z"/>
  <path class="st0" d="M104.8,9.1v-1c0-.5,0-1-.2-1.4-.2-.4-.5-.8-.9-1.1.3-.3.6-.6.8-1,.2-.4.2-.8.2-1.3v-.5C104.6.9,103.7,0,101.8,0h-2.7v12h2.8c1.9,0,2.8-.9,2.8-2.9M100.5,1.2h1.3c1.1,0,1.5.4,1.5,1.7v.6c0,1.2-.5,1.6-1.6,1.6h-1.2V1.2ZM100.5,6.4h1.2c1.3,0,1.8.4,1.8,1.7v1c0,1.2-.4,1.7-1.5,1.7h-1.5v-4.4Z"/>
  <path class="st0" d="M110.6,10.8h-3.7v-4.4h3.1v-1.2h-3.1V1.2h3.7V0h-5v12h5v-1.2Z"/>
  <path class="st0" d="M112.5,6.6h1.2c1.2,0,1.6.4,1.6,1.6v2.1c0,.5,0,1,.1,1.4v.2h1.4v-.4c-.2-.4-.3-.9-.2-1.3v-2.1c0-.4,0-.9-.2-1.3-.2-.4-.5-.8-.8-1,.4-.3.6-.6.8-1,.2-.4.2-.9.2-1.3v-.7C116.6.9,115.7,0,113.8,0h-2.6v12h1.3v-5.4ZM112.5,1.2h1.3c1.1,0,1.5.4,1.5,1.7v.8c0,1.2-.5,1.6-1.6,1.6h-1.1V1.2Z"/>
  <path class="st0" d="M118.8,9.4h2.7l.6,2.6h1.3L120.9,0h-1.5l-2.5,12h1.3l.5-2.6ZM120.2,2.7l1.1,5.4h-2.3l1.1-5.4Z"/>
  <path class="st0" d="M93.3,14l-2.5,12h1.3l.5-2.6h2.7l.6,2.6h1.3l-2.5-12h-1.5ZM92.9,22.1l1.1-5.4,1.1,5.4h-2.3Z"/>
  <path class="st0" d="M100.3,13.8c-1.7,0-2.7,1.1-2.7,2.9v6.5c0,1.8,1,2.9,2.7,2.9s2.7-1.1,2.7-2.9v-1.8h-1.3v1.8c0,1-.5,1.6-1.5,1.6s-1.4-.6-1.4-1.6v-6.5c0-1,.5-1.6,1.4-1.6s1.5.6,1.5,1.6v1.5h1.3v-1.4c0-1.8-1-2.9-2.7-2.9"/>
  <path class="st0" d="M109.2,21.5h-1.3v1.8c0,1-.5,1.6-1.5,1.6s-1.4-.6-1.4-1.6v-6.5c0-1,.5-1.6,1.4-1.6s1.5.6,1.5,1.6v1.5h1.3v-1.4c0-1.8-1-2.9-2.7-2.9s-2.7,1.1-2.7,2.9v6.5c0,1.8,1,2.9,2.7,2.9s2.7-1.1,2.7-2.9v-1.8Z"/>
  <path class="st0" d="M115.8,26l-2.5-12h-1.5l-2.5,12h1.3l.5-2.6h2.7l.6,2.6h1.3ZM111.4,22.1l1.1-5.4,1.1,5.4h-2.3Z"/>
  <path class="st0" d="M121.9,17c0-2-.9-3-2.8-3h-2.8v12h2.8c1.9,0,2.8-1,2.8-3v-6ZM120.5,23c0,1.3-.4,1.7-1.5,1.7h-1.4v-9.5h1.4c1.1,0,1.5.5,1.5,1.7v6Z"/>
  <path class="st0" d="M127.8,15.2v-1.2h-5v12h5v-1.2h-3.7v-4.4h3.1v-1.2h-3.1v-3.9h3.7Z"/>
  <path class="st0" d="M129.7,17.9l1.8,8.1h1.1l1.8-8.1v8.1h1.3v-12h-1.7l-1.9,8.9-1.9-8.9h-1.7v12h1.3v-8.1Z"/>
  <path class="st0" d="M138,14h-1.3v12h1.3v-12Z"/>
  <path class="st0" d="M142.4,14h-1.5l-2.5,12h1.3l.5-2.6h2.7l.6,2.6h1.3l-2.5-12ZM140.5,22.1l1.1-5.4,1.1,5.4h-2.3Z"/>
  <path class="st0" d="M95.8,33.7c.3-.3.6-.6.8-1,.2-.4.2-.8.2-1.3v-.5c0-2-.9-2.9-2.8-2.9h-2.7v12h2.8c1.9,0,2.8-.9,2.8-2.9v-1c0-.5,0-1-.2-1.4-.2-.4-.5-.8-.9-1.1M92.7,29.2h1.3c1.1,0,1.5.4,1.5,1.7v.6c0,1.2-.5,1.6-1.6,1.6h-1.2v-3.9ZM95.7,37.1c0,1.2-.4,1.7-1.5,1.7h-1.5v-4.4h1.2c1.3,0,1.8.4,1.8,1.7v1Z"/>
  <path class="st0" d="M97.8,40h5v-1.2h-3.7v-4.4h3.1v-1.2h-3.1v-3.9h3.7v-1.2h-5v12Z"/>
  <path class="st0" d="M104.7,28h-1.3v12h4.9v-1.2h-3.6v-10.8Z"/>
  <path class="st0" d="M110.1,28h-1.3v12h4.9v-1.2h-3.6v-10.8Z"/>
  <path class="st0" d="M114.2,40h5v-1.2h-3.7v-4.4h3.1v-1.2h-3.1v-3.9h3.7v-1.2h-5v12Z"/>
  <path class="st0" d="M124.3,28l-2.5,12h1.3l.5-2.6h2.7l.6,2.6h1.3l-2.5-12h-1.5ZM123.9,36.1l1.1-5.4,1.1,5.4h-2.3Z"/>
  <path class="st0" d="M134.2,38.3v-2.1c0-.4,0-.9-.2-1.3s-.5-.8-.8-1c.4-.3.6-.6.8-1,.2-.4.2-.9.2-1.3v-.7c0-2-.9-2.9-2.8-2.9h-2.6v12h1.3v-5.4h1.2c1.2,0,1.6.4,1.6,1.6v2.1c0,.5,0,1,.1,1.4v.2h1.4v-.4c-.2-.4-.3-.9-.2-1.3ZM132.8,31.7c0,1.2-.5,1.6-1.6,1.6h-1.1v-4.1h1.3c1.1,0,1.5.4,1.5,1.7v.8Z"/>
  <path class="st0" d="M134.5,29.2h2.2v10.8h1.3v-10.8h2.2v-1.2h-5.7v1.2Z"/>
  <path class="st0" d="M142,28h-1.3v12h1.3v-12Z"/>
  <path class="st0" d="M6.7,0H0v40h15.6l1-6.1H6.7V0Z"/>
  <path class="st0" d="M33.2,0h-8.8l-6.5,40h6.3l1.1-7.7.9-5.9,2.5-17.9,2.5,17.9.9,5.9,1.1,7.7h6.7L33.3.2V0Z"/>
  <path class="st0" d="M57.5,18.7c2.5-1.2,3.7-3.8,3.7-7.8v-1.6C61.2,3,58.2,0,51.8,0h-9.6v40h10c3.1,0,5.5-.8,7.2-2.5,1.6-1.6,2.5-4,2.5-7.1v-3.4c0-1.9-.3-3.8-1.2-5.5-.7-1.3-1.8-2.3-3.2-2.8M48.9,6.1h2.7c2,0,2.9,1.2,2.9,3.8v2.2c0,2.8-1,3.9-3.5,3.9h-2.2V6.1ZM55.1,30.2c0,1-.2,2-.7,2.9-.3.3-.6.5-1,.6-.4.1-.8.2-1.2.1h-3.3v-11.6h2.5c1.4,0,2.3.3,2.9,1,.6.7.9,1.8.9,3.6v3.4Z"/>
  <path class="st0" d="M78.5,0h-8.8l-6.5,40h6.3l1.1-7.7.9-5.9,2.5-17.9,2.5,17.9.9,5.9,1.1,7.7h6.7L78.5,0Z"/>
</svg>